<?xml version="1.0" encoding="UTF-8" standalone="no"?>
<!-- Created with Inkscape (http://www.inkscape.org/) -->

<svg
   xmlns:dc="http://purl.org/dc/elements/1.1/"
   xmlns:cc="http://creativecommons.org/ns#"
   xmlns:rdf="http://www.w3.org/1999/02/22-rdf-syntax-ns#"
   xmlns:svg="http://www.w3.org/2000/svg"
   xmlns="http://www.w3.org/2000/svg"
   xmlns:sodipodi="http://sodipodi.sourceforge.net/DTD/sodipodi-0.dtd"
   xmlns:inkscape="http://www.inkscape.org/namespaces/inkscape"
   width="210mm"
   height="297mm"
   id="svg2"
   version="1.1"
   inkscape:version="0.48.5 r10040"
   sodipodi:docname="exclamation.svg"
   inkscape:export-filename="/home/dadafkas/anybox/code/telecommande/custom/anybox8/odoo.anybox.fr/addons-anytracker/anytracker/static/src/img/exclamation.png"
   inkscape:export-xdpi="12.676754"
   inkscape:export-ydpi="12.676754">
  <defs
     id="defs4" />
  <sodipodi:namedview
     id="base"
     pagecolor="#ffffff"
     bordercolor="#666666"
     borderopacity="1.0"
     inkscape:pageopacity="0.0"
     inkscape:pageshadow="2"
     inkscape:zoom="2.8"
     inkscape:cx="281.53165"
     inkscape:cy="914.04503"
     inkscape:document-units="px"
     inkscape:current-layer="layer1"
     showgrid="false"
     showguides="true"
     inkscape:guide-bbox="true"
     inkscape:window-width="1600"
     inkscape:window-height="834"
     inkscape:window-x="0"
     inkscape:window-y="27"
     inkscape:window-maximized="1" />
  <metadata
     id="metadata7">
    <rdf:RDF>
      <cc:Work
         rdf:about="">
        <dc:format>image/svg+xml</dc:format>
        <dc:type
           rdf:resource="http://purl.org/dc/dcmitype/StillImage" />
        <dc:title></dc:title>
      </cc:Work>
    </rdf:RDF>
  </metadata>
  <g
     inkscape:label="Calque 1"
     inkscape:groupmode="layer"
     id="layer1">
    <path
       style="fill:#000000;fill-opacity:0.60000002;fill-rule:nonzero;stroke:none;stroke-opacity:1"
       d="M 244.65625 71.65625 C 213.29437 71.65625 187.84375 97.075617 187.84375 128.4375 C 187.84375 159.79938 213.29437 185.21875 244.65625 185.21875 C 276.01813 185.21875 301.4375 159.79938 301.4375 128.4375 C 301.4375 97.075617 276.01813 71.65625 244.65625 71.65625 z M 244.65625 79.5 C 271.67875 79.5 293.5625 101.415 293.5625 128.4375 C 293.5625 155.46 271.67875 177.375 244.65625 177.375 C 217.63375 177.375 195.71875 155.46 195.71875 128.4375 C 195.71875 101.415 217.63375 79.5 244.65625 79.5 z "
       id="path2985-6" />
    <path
       sodipodi:type="arc"
       style="fill:#000000;fill-opacity:0.6;stroke:none"
       id="path2997"
       sodipodi:cx="227.53687"
       sodipodi:cy="122.26424"
       sodipodi:rx="4.7982244"
       sodipodi:ry="31.062191"
       d="m 232.33509,122.26424 a 4.7982244,31.062191 0 1 1 -9.59645,0 4.7982244,31.062191 0 1 1 9.59645,0 z"
       transform="matrix(2.1068126,0,0,1.0313647,-235.19343,-9.4312373)" />
    <path
       transform="matrix(1.8485902,0,0,0.33424691,-176.43832,121.81277)"
       d="m 232.33509,122.26424 a 4.7982244,31.062191 0 1 1 -9.59645,0 4.7982244,31.062191 0 1 1 9.59645,0 z"
       sodipodi:ry="31.062191"
       sodipodi:rx="4.7982244"
       sodipodi:cy="122.26424"
       sodipodi:cx="227.53687"
       id="path3767"
       style="fill:#000000;fill-opacity:0.6;stroke:none"
       sodipodi:type="arc" />
  </g>
</svg>
